<?xml version="1.0" encoding="UTF-8" standalone="no"?>
<svg
   id="Discord-Logo"
   viewBox="0 0 120 120"
   version="1.1"
   sodipodi:docname="Discord-Symbol-White.svg"
   width="120"
   height="120"
   inkscape:version="1.4.3 (0d15f75042, 2025-12-25)"
   xmlns:inkscape="http://www.inkscape.org/namespaces/inkscape"
   xmlns:sodipodi="http://sodipodi.sourceforge.net/DTD/sodipodi-0.dtd"
   xmlns="http://www.w3.org/2000/svg"
   xmlns:svg="http://www.w3.org/2000/svg">
  <sodipodi:namedview
     id="namedview1"
     pagecolor="#6d6d6d"
     bordercolor="#000000"
     borderopacity="0.25"
     inkscape:showpageshadow="2"
     inkscape:pageopacity="0.0"
     inkscape:pagecheckerboard="true"
     inkscape:deskcolor="#3a3a3a"
     inkscape:zoom="3.4791667"
     inkscape:cx="31.041916"
     inkscape:cy="55.185629"
     inkscape:window-width="1600"
     inkscape:window-height="876"
     inkscape:window-x="0"
     inkscape:window-y="0"
     inkscape:window-maximized="1"
     inkscape:current-layer="Discord-Logo" />
  <defs
     id="defs1">
    <style
       id="style1">.cls-1{fill:#fff;}</style>
  </defs>
  <path
     style="fill:#000000"
     d="M 60.287425,-13.389222 V 106.61078"
     id="path1" />
  <path
     id="text1"
     style="font-weight:bold;font-size:72.1077px;font-family:Inter;-inkscape-font-specification:Inter;fill:#ffffff;stroke-width:6.00894"
     d="m 31.978541,28.645002 q -3.90818,0 -7.112185,0.528133 -3.168795,0.492924 -5.527787,1.971694 -2.323783,1.478772 -3.591301,4.330687 -1.232309,2.851916 -1.232309,7.499482 v 6.126338 q 0,3.767345 -1.584398,5.562996 -1.549189,1.795651 -5.4221606,1.936486 H 6.6633883 v 9.576803 h 0.8450121 q 3.9081806,0.140836 5.4573696,1.936486 1.549189,1.795652 1.549189,5.527789 v 6.161545 q 0,4.647567 1.232309,7.499482 1.267518,2.851917 3.591301,4.330688 2.358992,1.47877 5.527787,1.971694 3.204005,0.528132 7.112185,0.528132 v -7.992405 q -4.577148,0 -6.126337,-1.795651 -1.549189,-1.760442 -1.549189,-5.562996 v -7.675526 q 0,-1.936486 -0.633759,-3.767346 -0.633759,-1.795651 -2.42941,-3.274422 -1.79565,-1.443562 -5.210907,-2.288574 v -0.774594 q 3.415257,-0.880221 5.210907,-2.358992 1.795651,-1.443563 2.42941,-3.274422 0.633759,-1.795651 0.633759,-3.732137 v -7.640317 q 0,-3.802555 1.549189,-5.598205 1.549189,-1.795651 6.126337,-1.795651 z M 42.787655,51.777208 42.013061,87.619803 H 53.385515 L 52.61092,51.777208 Z m 4.929237,-17.287539 q -2.746289,0 -4.506731,1.654815 -1.725233,1.654816 -1.725233,4.295478 0,2.675872 1.725233,4.330687 1.760442,1.654815 4.506731,1.654815 2.746289,0 4.506731,-1.654815 1.760442,-1.654815 1.760442,-4.330687 0,-2.640662 -1.760442,-4.295478 -1.760442,-1.654815 -4.506731,-1.654815 z m 29.909012,-12.16749 c -0.97146,1.724781 -1.84378,3.509061 -2.636741,5.332982 -3.761909,-0.564277 -7.558424,-0.846782 -11.357446,-0.847514 -3.808902,-7.35e-4 -8.638109,62.166709 -0.06958,62.176804 8.614953,0.01015 17.234095,-1.863326 25.225349,-5.62043 0.67404,0.555119 1.36794,1.090379 2.081621,1.566219 -2.716022,1.605783 -5.551043,2.953943 -8.504984,4.064182 1.546361,3.033219 3.350422,5.947519 5.392482,8.683398 9.059871,-2.735879 17.564865,-6.998336 25.158515,-12.6088 2.06129,-21.411287 -3.52915,-39.967694 -14.770501,-56.402759 -6.52211,-2.993582 -13.421312,-5.114922 -20.498934,-6.304442 z m 2.517821,51.347337 c -4.916721,0 -8.941183,-4.440881 -8.941183,-9.932423 0,-5.491543 3.905542,-9.952283 8.941183,-9.952283 5.035641,0 9.020463,4.480521 8.941104,9.952283 -0.07928,5.471761 -3.945182,9.932423 -8.941104,9.932423 z" />
</svg>
